/* XPM */
static char * collectable_xpm[] = {
"64 64 62 1",
" 	c None",
".	c #000000",
"+	c #47704C",
"@	c #2D2D2D",
"#	c #FBA718",
"$	c #FA860F",
"%	c #2D2E2E",
"&	c #2E2D2D",
"*	c #FFCB46",
"=	c #F9A919",
"-	c #FEA619",
";	c #FDA81B",
">	c #2D2925",
",	c #F18A18",
"'	c #FCA619",
")	c #FDA51A",
"!	c #F99C19",
"~	c #FCA21A",
"{	c #F89512",
"]	c #2F2C27",
"^	c #F79011",
"/	c #7C4F1E",
"(	c #DA6E03",
"_	c #D86500",
":	c #F7890D",
"<	c #D68425",
"[	c #FFC845",
"}	c #FD9F19",
"|	c #A26118",
"1	c #F78C0F",
"2	c #4D351B",
"3	c #E98E1C",
"4	c #352A1D",
"5	c #EA7708",
"6	c #F99F19",
"7	c #F79915",
"8	c #E77E0B",
"9	c #3E2E1D",
"0	c #FFED86",
"a	c #573C19",
"b	c #E68514",
"c	c #FCCF55",
"d	c #DF7709",
"e	c #F27D0E",
"f	c #CD7F2B",
"g	c #CD6B08",
"h	c #FEC23B",
"i	c #8E571B",
"j	c #DF932D",
"k	c #F9B126",
"l	c #D26000",
"m	c #BB7424",
"n	c #F3C765",
"o	c #F7840F",
"p	c #65451F",
"q	c #FFE77A",
"r	c #FCD860",
"s	c #F7B93A",
"t	c #FCDE72",
"u	c #A46C2F",
"v	c #E5A73F",
"w	c #F6C65B",
"                                                                ",
"                                                                ",
"                                                                ",
"                                                                ",
"                                                                ",
"                                                                ",
"                                                                ",
"                        i||||||||||||||/                        ",
"                        m,,,,,,,,,,,,,3|                        ",
"                   2///i<7{{{{{{{{{{{{7mi///                    ",
"                   pb,,,6;####==###'''#7,,,f2                   ",
"                 2pi3^^{}'#####=####'';6^1^</p                  ",
"                 /<3)''#;;;;;;;;;;;---;###'63<a                 ",
"             2222i,{#=;'6!!!!!!!!!!!!!!~;#=~^b/2aa              ",
"             uf<f3})=#-~8((((((((((((((b))=#~6bfffi             ",
"            2m^1:{)#=#}!d______________b!~#==)^:1^|             ",
"          2um366!})##68deeeeeeeeeeeeeee8db'==#}!663mi           ",
"          2f,!'###=#)!(_e$$$$$$$$$$$:o:5_d~#======!,u           ",
"          2f:!'##==6855eo$$$$$$$$$$::{7:558b~###==7,u           ",
"          2f,6'##';{__e$$$$$$$$$$$:::7){:e_(!);#=;7,m           ",
"        2i|37)=#-7b855o$$::::$$$$$$^76'6{:55b,6;;-!7<i/         ",
"        p<3~-'''-,l($$$$$$$$$$$:$$:!;==')!:e_g7;)-);63f2        ",
"      2pi3{~--)738(5$$$$$$$$$$$::^{~###')!{^bb3^6###~{</p       ",
"      /<3~)'##)8_doo$$$$$$$$$$$$:})'''#''')=hsd_^==##)63fa      ",
"      /,^)#;'678_5:$$$$$$$$$$$:1{)##''=####k[[j<376'#;~1<a      ",
"      /,^)#;~8(8oo:$$$$$$$$$$$^~'==''==##''k[cttj_b'#=}1<a      ",
"      /,^)##~d_5$$$$$$$$$$$$$:{)==#''#####=k[cq0jl8)#;}1<a      ",
"      /,^)==~d_5$$$$$$$$$$$:^}}'##''''#==khh[cq0jl8'#;}1<a      ",
"      /,^)==~d_5$$$$$$$$$::17)#'''''''#==k[*[cq0jl8'#;}1<a      ",
"      /,^)==~d_5$$$$$$$$$:{!~==;#=#'''#khh*[[cq0jl8'#;}1<a      ",
"      /,^)==~d_5$$$$$$$$::7;;=#;==''##=s***[[cq0jl8'#;}1<a      ",
"      /,^)##~d_5$$$$$$$:^76-######-#=ksh***[[cq0jl8'#;}1<a      ",
"      /,^)##~d_5$$$$$$::!)-''########s******[cq0jl8'#;}1<a      ",
"      /,^)##~d_5$o$$$:^{~;;''#####=kkh******[cq0jl8'#;}1<a      ",
"      /,^)##~dl5$o$$$1}'===#'#####=h[[******[cq0jl8'#;}1<a      ",
"      /,^)##~d_5$o$:^{~#===##'##=kkh**[******cq0jl8##;}1<a      ",
"      /,^)##~dl5:o:1~)'-;####')'=h[**********cq0jl8##;}1<a      ",
"      /,^)==~8(5oo$^);';#####''=kh*********[ccrtj_b'';}1<a      ",
"      /,1~###6!8_5:^--'''#####khh[*******[[cqtjd3!~=#)}1<a      ",
"      /b,~###')8_do^~)'''####=k[[[*********cqt<g3'##')6,fa      ",
"      2pi3{~'')7{b(51{~'''#=khh[[[******[ctcj33{6'#;6{</p       ",
"        p<,~;##'-,l(o1~''##=s******[[[[[[c0c(_7;)'=;!3m2        ",
"        2/|37~'##!,bd5!'#=ksh**********crwvj3,6;''67<i/         ",
"          2f:!-###={_(!;#=s*[*********cr0wg(6)#==#7,m           ",
"          2f:!#=#==!88,3s[crrrrrrrrrrrrwsvbb~'###=7,m           ",
"          2f^~=#'#=')!(gw00000000000000vgd~)##';;;7,m           ",
"          2um36!6~=##68dsnnnnnnnnnnnnnnvdb)##'}}}~3mi           ",
"            2m^117##''~6dggggggggggggggb~~#==)^:1^|             ",
"             ufff36~###~8((((((((((((((b####)6<fffi             ",
"             2aaai,{'==)6!!!!!!!!!!!!!66###~^b/aa2              ",
"                 /<3~)))'#'''''''''''';'~~)6,fa                 ",
"                 2pi,11^6##############61^^</p                  ",
"                   pbb,,6;'''''''''''')7,,,m2                   ",
"                   2///i<{{{{{{{{{{{{{7m///p                    ",
"                        m,1,,,,,,,,,,,3|                        ",
"                        /||||||||||||||p                        ",
"                                                                ",
"                                                                ",
"                                                                ",
"                                                                ",
"                                                                ",
"                                                                ",
"                                                                ",
"                                                                "};
