/* XPM */
static char * exitr!_xpm[] = {
"64 64 62 1",
" 	c None",
".	c #000000",
"+	c #47704C",
"@	c #4C4B52",
"#	c #414043",
"$	c #3E4043",
"%	c #474448",
"&	c #434347",
"*	c #303E3C",
"=	c #67646B",
"-	c #4A4B4E",
";	c #6F7071",
">	c #7E8081",
",	c #46454A",
"'	c #60656A",
")	c #73807A",
"!	c #323838",
"~	c #414847",
"{	c #5F6161",
"]	c #5F6463",
"^	c #69636B",
"/	c #798484",
"(	c #444046",
"_	c #4A4347",
":	c #4F5255",
"<	c #524D53",
"[	c #64686A",
"}	c #7B7E81",
"|	c #161618",
"1	c #1C1B1F",
"2	c #18181B",
"3	c #515054",
"4	c #171719",
"5	c #1A191D",
"6	c #2B2A2F",
"7	c #27262B",
"8	c #4C4B50",
"9	c #57565C",
"0	c #45454A",
"a	c #A4A3A5",
"b	c #38373D",
"c	c #5A595C",
"d	c #212025",
"e	c #252427",
"f	c #BBBBBC",
"g	c #88898B",
"h	c #56555A",
"i	c #ADAFAE",
"j	c #3D8C38",
"k	c #648365",
"l	c #AAAAA9",
"m	c #68666B",
"n	c #7D7B7F",
"o	c #99979B",
"p	c #6BD035",
"q	c #37C025",
"r	c #3D3C42",
"s	c #78787C",
"t	c #807F82",
"u	c #313134",
"v	c #6C955F",
"w	c #6E9C60",
"                                                                ",
"                                                                ",
"                            ;kvwwvk;                            ",
"                           [kjppppjk{                           ",
"                           >kjqqqqjk>                           ",
"                     %%%%<;ggkjjjjkgg>{%%%%_                    ",
"                   =>oaaoaliiilllliiiiaaaaon=                   ",
"                  =sglffffffffffffffffffffigt=                  ",
"                 =sggoaaaaaaaaaaaaaaaaaaaaaggn=                 ",
"                 mggnmcccccccccccccccccccccnggm                 ",
"                 mgthu7ee7eeee7e7eeeeeeee763ngm                 ",
"                 cscud11111111111111111111d63;c                 ",
"                 3cbd1555225222222222222511d639                 ",
"                 3361554||44|||||||4444|4551789                 ",
"                 3h61554||44|||||||444|||251789                 ",
"                 33615244444|||||||||||||45178h                 ",
"                 33615244444||||||||||||||2178h                 ",
"                 33615244444||||||||||||||2178h                 ",
"                 3361524||||||||||||||||||5178h                 ",
"                 3361524||||||||||||||||||51789                 ",
"                 3361524||||||||||||||||||51789                 ",
"                 3361524||||||||||||||||||51789                 ",
"                 3361524||||||||||||||||||51789                 ",
"                 3361524||||||||||||||||||51789                 ",
"                 3361524||||||||||||||||||51789                 ",
"                 3361524||||||||||||||||||51789                 ",
"                 3361524||||||||||||||||||51789                 ",
"                 3361524||||||||||||||||||51789                 ",
"                 3361524||||||||||||||||||51789                 ",
"                 3361524||||||||||||||||||51789                 ",
"                 3361524||||||||||||||||||51789                 ",
"                 3361524||||||||||||||||||51789                 ",
"                 3361524||||||||||||||||||51789                 ",
"                 3361524||||||||||||||||||51789                 ",
"                 3361524||||||||||||||||||51789                 ",
"                 3361524||||||||||||||||||51789                 ",
"                 3361524||||||||||||||||||51789                 ",
"                 3361524||||||||||||||||||51789                 ",
"                 3361524||||||||||||||||||51789                 ",
"                 3361524||||||||||||||||||51789                 ",
"                 3361524||||||||||||||||||51789                 ",
"                 3361524||||||||||||||||||51789                 ",
"                 3361524||||||||||||||||||51789                 ",
"                 3361524||||||||||||||||||51789                 ",
"                 3361524||||||||||||||||||51789                 ",
"                 3361524||||||||||||||||||51789                 ",
"                 3361524||||||||||||||||||51789                 ",
"                 3361524||||||||||||||||||51789                 ",
"                 3361524||||||||||||||||||51789                 ",
"                 3361524||||||||||||||||||51789                 ",
"                 3361524||||||||||||||||||51789                 ",
"                 3361524||||||||||||||||||51789                 ",
"                 3361524|||||||||||||||||42178h                 ",
"                 3361524|||||||||||||||||25178h                 ",
"                 33615524|||||||||||||||455178h                 ",
"                 336d1555222555555555552211178h                 ",
"                 -3b7d11555511111111111111d7b83                 ",
"                  -0b6eeddddddddddddddddee7b0-(                 ",
"                   -0rbbbbbbbbbbbbbbbbbbbrr0-                   ",
"                    ,0000000000000000000000,                    ",
"                                                                ",
"                                                                ",
"                                                                ",
"                                                                "};
