/* XPM */
static char * p_down!_xpm[] = {
"64 64 222 2",
"  	c None",
". 	c #47704C",
"+ 	c #FFFFFF",
"@ 	c #FFFFFF",
"# 	c #FFFFFF",
"$ 	c #FFFFFF",
"% 	c #FFFFFF",
"& 	c #FDFDFD",
"* 	c #FEFEFD",
"= 	c #FFFFFF",
"- 	c #FFFFFF",
"; 	c #FFFFFF",
"> 	c #FFFFFF",
", 	c #FFFFFF",
"' 	c #FFFFFF",
") 	c #FFFFFF",
"! 	c #FFFFFF",
"~ 	c #FFFFFF",
"{ 	c #FFFFFF",
"] 	c #FFFFFF",
"^ 	c #FFFFFF",
"/ 	c #FFFFFF",
"( 	c #FFFFFF",
"_ 	c #FFFFFF",
": 	c #FFFFFF",
"< 	c #FFFEFE",
"[ 	c #FFFFFE",
"} 	c #725850",
"| 	c #FFFFFE",
"1 	c #DACFCA",
"2 	c #530404",
"3 	c #B39685",
"4 	c #A99994",
"5 	c #715248",
"6 	c #A69792",
"7 	c #675C58",
"8 	c #272625",
"9 	c #959292",
"0 	c #1E1E1E",
"a 	c #89726B",
"b 	c #1C1C1C",
"c 	c #F5E5D9",
"d 	c #A69E9B",
"e 	c #BAB6B4",
"f 	c #866559",
"g 	c #FAE0D0",
"h 	c #F9D3BC",
"i 	c #272626",
"j 	c #544D4C",
"k 	c #6E655F",
"l 	c #262727",
"m 	c #F8D1B9",
"n 	c #242424",
"o 	c #373330",
"p 	c #D3C7C0",
"q 	c #B7B7B7",
"r 	c #A5A1A0",
"s 	c #AEA4A1",
"t 	c #95827B",
"u 	c #727373",
"v 	c #3D4044",
"w 	c #363535",
"x 	c #B4B4B4",
"y 	c #64473E",
"z 	c #FCE6D9",
"A 	c #ABA09C",
"B 	c #7A6058",
"C 	c #AFA39F",
"D 	c #6B5953",
"E 	c #A39590",
"F 	c #263955",
"G 	c #F9D4BD",
"H 	c #FAD9C5",
"I 	c #897D79",
"J 	c #918987",
"K 	c #847169",
"L 	c #515151",
"M 	c #201818",
"N 	c #544F4E",
"O 	c #464747",
"P 	c #F8D2BA",
"Q 	c #0C0C0C",
"R 	c #957B71",
"S 	c #949494",
"T 	c #89746E",
"U 	c #636363",
"V 	c #EBD9CF",
"W 	c #79625A",
"X 	c #BAB6B4",
"Y 	c #E1D2C9",
"Z 	c #7A6E6A",
"` 	c #FAD9C5",
" .	c #888888",
"..	c #8C8A8A",
"+.	c #CFCBC9",
"@.	c #5F5F5F",
"#.	c #3E3E3E",
"$.	c #3D3E3E",
"%.	c #898989",
"&.	c #585858",
"*.	c #7E7E7E",
"=.	c #725850",
"-.	c #81655B",
";.	c #775D55",
">.	c #866A61",
",.	c #96847F",
"'.	c #9D9D9D",
").	c #F8D5BF",
"!.	c #0E1010",
"~.	c #F5DAC9",
"{.	c #610D0D",
"].	c #F8DCCB",
"^.	c #060909",
"/.	c #9D8D82",
"(.	c #F7D4BF",
"_.	c #F6D9C8",
":.	c #F8D0B8",
"<.	c #000000",
"[.	c #D50000",
"}.	c #6D4C40",
"|.	c #FAD2BA",
"1.	c #F9D1B9",
"2.	c #795548",
"3.	c #0D46A1",
"4.	c #D80000",
"5.	c #785447",
"6.	c #FDD4BB",
"7.	c #725044",
"8.	c #6F4D42",
"9.	c #0B0A09",
"0.	c #130000",
"a.	c #CE0000",
"b.	c #69493F",
"c.	c #020F23",
"d.	c #DA0000",
"e.	c #0C4297",
"f.	c #977F70",
"g.	c #AE0000",
"h.	c #010204",
"i.	c #B99381",
"j.	c #FBD3BA",
"k.	c #5B3E35",
"l.	c #62453C",
"m.	c #0D48A4",
"n.	c #DAB7A2",
"o.	c #161311",
"p.	c #5D4037",
"q.	c #A70000",
"r.	c #420000",
"s.	c #755246",
"t.	c #041736",
"u.	c #EDC6AF",
"v.	c #110E0D",
"w.	c #674D45",
"x.	c #C30000",
"y.	c #082B61",
"z.	c #FFD6BD",
"A.	c #0A0000",
"B.	c #604239",
"C.	c #ECC4AD",
"D.	c #08316F",
"E.	c #670000",
"F.	c #740000",
"G.	c #C9A997",
"H.	c #BFA18F",
"I.	c #052049",
"J.	c #FDFCFC",
"K.	c #1F1E1D",
"L.	c #C7A693",
"M.	c #E9C1AB",
"N.	c #9F8677",
"O.	c #BB0303",
"P.	c #B79A88",
"Q.	c #2D2723",
"R.	c #F0C9B2",
"S.	c #D1AD99",
"T.	c #76584D",
"U.	c #F6CEB6",
"V.	c #D5B39F",
"W.	c #F3CCB5",
"X.	c #F9E1D2",
"Y.	c #22181C",
"Z.	c #8D776A",
"`.	c #7A5A4F",
" +	c #B3907F",
".+	c #AB8D7D",
"++	c #493F3A",
"@+	c #F8D7C3",
"#+	c #906B5D",
"$+	c #FAF2ED",
"%+	c #320000",
"&+	c #030101",
"*+	c #9C0000",
"=+	c #342B29",
"-+	c #6D5C51",
";+	c #7C5E53",
">+	c #820000",
",+	c #F9EAE1",
"'+	c #63524B",
")+	c #06275A",
"!+	c #E5BFA9",
"~+	c #D71210",
"{+	c #957263",
"]+	c #A08272",
"^+	c #9D9D9D",
"/+	c #8C8C8C",
"(+	c #250000",
"_+	c #9B7A6B",
":+	c #DB241F",
"<+	c #F4F4F4",
"[+	c #7B7B7B",
"}+	c #642D28",
"|+	c #F1AB97",
"1+	c #930808",
"2+	c #221B3E",
"3+	c #872723",
"4+	c #EF9C8A",
"5+	c #E25047",
"6+	c #E66357",
"7+	c #AE6257",
"8+	c #2E1311",
"9+	c #EDAA97",
"                                                                                                                                ",
"                                                                                                                                ",
"                                                                                                                                ",
"                                                                                                                                ",
"                                                                                                                                ",
"                                                              `.T.T.T.T.T.T.w.w.w.w.w.w.w.w.'+K                                 ",
"                                                            D }.}.}.}.}.}.b.p.p.p.p.p.p.p.p.B.W                                 ",
"                                          =.} } } } } } } } 5 }.}.}.}.}.}.}.b.b.8.7.7.7.7.b.b.5 } T                             ",
"                                          y k.k.k.k.k.k.k.k.l.}.}.}.}.}.}.}.}.8.s.2.2.2.5.8.}.l.k.}                             ",
"                                        T w.k.l.b.b.b.b.l.l.b.}.}.7.7.7.7.7.7.7.7.s.s.2.5.8.}.f R ,.                            ",
"                                } 8.b.B.p.p.p.}.2.2.2.5.8.}.}.}.8.5.2.2.2.2.2.5.8.}.7.2.5.8.7.K                                 ",
"                                } }.b.B.B.B.B.}.5.5.5.5.8.}.}.8.8.5.2.2.2.2.2.5.8.}.7.2.5.}.8.                                  ",
"                            ;+5 2.5.s.s.s.s.s.7.8.8.8.8.}.}.7.5.5.2.2.2.2.2.2.5.8.}.7.2.s.l.l.D                                 ",
"                            l.p.s.2.2.2.2.2.2.7.}.}.}.}.}.}.7.5.5.5.5.5.5.5.5.5.8.}.7.2.s.l.l.W                                 ",
"                            s.}.s.2.2.2.5.s.7.b.l.l.l.}.]+ +i.i.i.i.i.i.i.i.i.i. + +{+7.5 ;.Z                                   ",
"                            ;+2.5.5.5.5.s.}.b.B.k.k.k.b.V.6.|.|.|.|.|.|.|.|.|.|.|.j.i.}.5                                       ",
"                            `.2.f #+#+#+#+f f ;+`.`.`.f n.1.:.:.:.:.:.:.:.:.:.:.:.|.i.}.5                                       ",
"                            s.2.S.u.C.C.C.C.C.M.M.M.M.C.U.:.:.:.:.:.:.:.:.:.:.:.:.|.i.}.5                                       ",
"                            s.2.n.|.1.1.1.1.1.1.1.1.1.1.:.:.:.:.:.:.:.:.:.:.:.:.:.|.i.}.5                                       ",
"                            b.8.n.|.:.:.:.:.:.:.:.:.:.:.:.:.:.:.:.:.:.:.:.:.:.:.:.|. +B.y                                       ",
"                            l.b.V.|.:.:.:.j.j.j.j.|.:.:.:.:.:.:.:.j.j.j.j.|.:.:.:.|..+k.y                                       ",
"                            _+_+!+1.:.1.C..+N.N.N.P.W.:.:.:.:.1.C..+N.N.N.P.W.:.:.1.L.{+R                                       ",
"                            U.U.:.:.:.1.V.Y.<.h.<.++u.1.:.:.:.|.V.K.&+h.<.++C.1.:.:.U.U.m                                       ",
"                            |.:.:.:.:.1.n.Q.v.v.v.l.u.1.:.:.:.|.n.Q.v.o.v.p.u.1.:.:.:.:.m                                       ",
"                            |.:.:.:.:.:.W.S.G.G.G.n.U.:.:.:.:.:.R.S.G.G.G.V.U.:.:.:.:.:.m                                       ",
"                            |.:.:.:.:.:.:.|.|.j.6.j.:.:.:.:.:.:.:.6.6.j.|.1.:.:.:.:.:.:.m                                       ",
"                            1.:.:.:.:.:.|.X.X.G.f.3 W.:.:.:.:.1.C.N.f.n.,+X.1.:.:.:.:.:.P                                       ",
"                            1.:.:.:.:.:.@+J.J.[+K.'+R.1.:.:.:.1.n.o K.^+J.$+|.:.:.:.:.:.P                                       ",
"                            h h :.:.:.:.@+J.J.[+Y.'+R.1.:.:.:.|.n.o K.^+J.$+|.:.:.:.:.h G                                       ",
"                                G :.:.:.@+$+<+k <.++u.1.:.:.:.|.V.K.h./+J.,+|.:.:.:.`                                           ",
"                                G 1.:.:.@+$+<+k <.++u.1.:.:.:.|.V.Y.<./+J.,+|.:.1.1.).                                          ",
"                                  _.(.:.|.X.X.H.Z. +W.:.:.:.:.1.C.]+Z.V.X.@+1.h ` ].                                            ",
"                                      j.|.:.:.1.|.|.|.j.j.j.j.j.|.|.|.1.:.:.|.h                                                 ",
"                                    /.3 H.R.:.:.1.!+P.3 3 3 3 3 H.R.1.:.1.!+P.3 K                                               ",
"                                l 9.v.9.Q.n.|.:.|.3 o.9.9.9.9.9.Q.n.|.:.j.P.o.9.v.v.N                                           ",
"                                M A.A.A.Y.S.u.W.|.3 o.9.9.9.9.9.Q.n.1.R.u..+v.A.A.A.8                                           ",
"                            l M 1+q.q.q.1+=+o .+|.M.H.H.H.H.H.H.G.R.:.Z.=+}+*+q.q.q.{.!.b                                       ",
"                            9.A.g.d.4.4.O.0.<.Z.z.6.z.z.z.z.z.z.z.6.|.-+<.%+a.4.4.d.F.<.^.                                      ",
"                        u j 2 E.O.[.[.[.x.E.2 8.f.f.f.f.f.f.f.f.f.f.f.}+2 F.a.[.[.4.*+2 {.N u                                   ",
"                      v h.r.a.[.[.[.[.[.[.[.[.2 <.<.<.<.<.<.<.<.<.<.&+F.4.[.[.[.[.[.[.[.O.0.9.w                                 ",
"                      j o.2 ~+~+[.[.a.x.x.[.[.E.0.0.0.0.0.0.0.0.0.0.0.>+4.a.x.x.a.[.4.~+O.8+o.N                                 ",
"                  ++=+Z.S.S.|+4+:+[.>+(+r.x.[.x.g.g.g.g.g.g.g.g.g.g.g.x.4.q.%+%+g.4.5+|+9+S.G.k =+v                             ",
"                  K.<.f.6.|.j.C.:+4.F.<.0.O.4.[.4.4.4.4.4.4.4.4.4.4.4.[.4.*+A.A.q.4.6+j.|.|.|.-+<.l                             ",
"                  K.&+f.j.:.1.M.3+E.E.E.F.x.[.[.[.[.[.[.[.[.[.[.[.[.[.[.4.O.F.E.E.E.7+1.:.:.:.-+<.l                             ",
"                  K.<.f.z.|.6.M.Q.<.E.d.4.4.4.[.[.[.[.[.[.[.[.[.[.[.[.[.4.4.d.a.%+<.k 6.j.j.|.-+<.l                             ",
"                  #.i Z.L.L.L.P.K.<.2 g.q.q.q.x.[.[.[.[.[.[.[.[.[.[.[.O.q.q.g.*+(+<.w.L.L.L.L.k i j                             ",
"                      j o.o.o.v.h.<.A.0.0.0.0.>+4.[.[.[.[.[.[.[.[.[.[.E.0.0.0.0.&+<.9.o.o.o.o.w                                 ",
"                      v 9.9.9.9.<.<.<.h.h.h.h.F.a.a.a.a.a.a.a.a.a.a.a.2 h.h.h.h.<.<.h.9.9.9.v.w                                 ",
"                        %. . .u 0 <.t.D.D.D.D.Y.r.r.r.r.r.r.r.r.r.r.r.2+D.D.D.y.c.<.#.*.Z *.%.                                  ",
"                                i <.I.m.m.m.3.I.<.<.<.<.<.<.<.<.<.<.<.)+m.m.m.e.c.<.L                                           ",
"                                i <.I.3.3.3.3.y.t.t.t.t.t.t.t.t.t.t.t.D.m.3.3.e.c.<.L                                           ",
"                                i <.I.3.3.3.3.3.3.3.3.3.3.3.3.3.3.3.3.3.3.3.3.e.c.<.L                                           ",
"                                M <.I.3.3.3.3.3.e.e.e.e.e.e.e.e.e.e.e.3.3.3.3.e.c.<.n                                           ",
"                                Q <.I.3.3.3.3.)+c.c.c.c.c.c.c.c.c.c.c.D.m.3.3.e.c.<.n                                           ",
"                                Q <.I.m.m.m.3.I.<.<.<.<.<.<.<.<.<.<.<.)+m.m.m.e.c.&+n                                           ",
"                                n 8 F y.y.y.y.F 8 8 8 8 b b b b b 8 8 F y.y.y.y.v b                                             ",
"                                    U <.<.<.h.w                       j <.<.<.o.S                                               ",
"                                    u 0 0 0 Q.D                       U 0 0 0 o S                                               ",
"                                                                                                                                ",
"                                                                                                                                ",
"                                                                                                                                ",
"                                                                                                                                ",
"                                                                                                                                ",
"                                                                                                                                "};
