/* XPM */
static char * floor_xpm[] = {
"64 64 7 1",
" 	c None",
".	c #47704C",
"+	c #465749",
"@	c #4A5A4D",
"#	c #3E4C40",
"$	c #3A453B",
"%	c #2F322D",
"                                                                ",
"%%%%%%%%%%%%%%%%%%%%%%%%%%%%%%%%%%%%%%%%%%%%%%%%%%%%%%%%%%%%%%%%",
"%$#####$#####$#$$$$###$#$##$#$$$#####$$$####$$$$####$$$$#$#$$%%%",
"%$@@@@@++@@@@@@##+@+@++++@@++++@@@@@@+@+@@@@+##+@@+++@+@+++++$%%",
"%$+++@@+++@@@++##++++++++@@+++++++@@@@+++@+++##+@++++++++++++$%%",
"%$+++@@@+++@@+@##++++++++@@@@@+++++@@@+++@@++##+@+++++++@@@++$%%",
"%$++++@@+++@++@+#+++#@++++@@@@++++++@@+++@+++##+++#@++++@@@++$%%",
"%$++++@+++@@+++##+@++++++++@@+++++++@++++++++##+@++++++++@+++$%%",
"%$++++++++++++@##++++++++@++@@++++++@++++++++##+@@+++++++++++$%%",
"%$++++++++@+++@##+@+++++@++++@+++++++++++++++##+@@+@+++++++++$%%",
"%$++++@@++@@@++##+@+++@++@++++++@@++@@@@@@+++##+++@@+++++++++$%%",
"%$+@+++@+++@@@@##++++@+@@@++@+@++@++++@+@@@++##++++@+++++++++$%%",
"%$+++@++++++@@+##++++++++++@+@@+@+@++++@+@@@+##++++++++++++@+$%%",
"%$++@@++++++++@##+++++++++++@@@@+@@@++++@++++##++++++++++++@+$%%",
"%$++@@@++++++++##+#+#++++++@+@++++@@@+++@++++##++##+++++++@++$%%",
"%$+++@@++@+++++###+++++++++@@@++++++@++++@+++$##++++++++++@@+$%%",
"%$#+#+#+#+#++##$$###+#+#++#+#+#+#++#++#++#+##$$###+#+#++#++#+$%%",
"%$############$$$$###########################$$$#############%%%",
"%$############$$$$$#########################$$$$$############$%%",
"%$@@@@@@@@@@@@#$$#+@@@@@@@@@@@@@@@@@@@@@@@@@#$$#@@@@@@@@@@@@+$%%",
"%$@@@@@@@@@@@@@#$+@@@@@@@@@@@@@@@@@@@@@@@@@@@#$+@@@@@@@@@@@@@$%%",
"%$@++@+++@+@@@@##@@+++@@@@@@@@@@@@@@@@@@@@@@@##@@+++@@+@+@+@+$%%",
"%$@+++++++++@+@##+@@++@@@@@@@@+@@++@+++++@+++##+@@++@@@@@@@@+$%%",
"%$@@++++++@@@++##+++++++@@@@@@+@@@+++@++@@@++##+++++++@@@@+++$%%",
"%$@@@+@@++@@+++##++++#+++++++@++@@++@@++@@+++##++++++++++@+++$%%",
"%$++++@@++@@+++##+@@+++++++++@++++++++++@@+@+##++++#++++@++++$%%",
"%$++++@@++@++@@##++@@@++++++++++++++@@++@@+@+##++@@++++++++++$%%",
"%$++++@@++++++@##++++@++++++++++++++@@++@@+++##+++@@@++++++++$%%",
"%$+++++@++++++@##+++@+@++++++++++++++@+++++@@##+++@+@++++++++$%%",
"%$++++@@+#+++++##++@+@++++++++++++++@@+++++++##+++@@@++++++++$%%",
"%$++++@++++++++##+++++++++@@+++++++@@@++#++++##++++++++@@@+++$%%",
"%$++@@@+++++++@##++++++++++@++++++@@@@+++++++##++@@+++++@@@++$%%",
"%$+@@@@@+++++++##++@++++++++++#++@@@@++++++++##++@@++++++@@+#$%%",
"%$@@@@@++@@@@@@##+@@++++++@+++++@@@@@++++++++##+++++++++@++++$%%",
"%$+@@@@@+++@@@@##+@@+++++@@++++++@@@@@+++++++##+@@++++++@++++$%%",
"%$++@@@@+++@@@@##+@+++++@@@@@@+++++@@@+++++++##+@+++++++@@@++$%%",
"%$+++++++++++++##+++++++@@@@@@++++++@++++@@++##+@++++++++@@@+$%%",
"%$++++@++++++++##+@+++++@@@+@+++++++@++++++++##+@++++++++@@+#$%%",
"%$+++++++++++++##+++++++++++@@+++++++++++++++##+@++++++++++++$%%",
"%$++++@++++++++##+@++++++++++@+++++++++++++++##+@+++@++++++++$%%",
"%$+++++++@@@@++##+@++@+++++++++++++++@@@@@+++##+@+@@@++++++++$%%",
"%$+++++@@@@@@++##+@+++++++++++++++++@+@+@@@++##++++@@++++++++$%%",
"%$++++++@++@@@+##++++++++++++@++@+++++@@+@@++##++++++++++++++$%%",
"%$++@@++++++++@##+++#++++++++@@+++@@+++@@++++##++++++++++++@+$%%",
"%$++@@@++++++++##+++#++++++@@@@+++@@@++@@@+++##+#+#++++++++@+$%%",
"%$++@@@++++@+++###+++++++++++@+++++++++++@+++#$#++++++++++@@+$%%",
"%$++#+++#++#++#$$##+#+++++#+++#++++++++#++#+#$$##+#+#++++#++#$%%",
"%$############$$$$##########################$$$$#############$%%",
"%$###########$$$$$##########################$$$$#############%%%",
"%#@@@@@@@@@@@@#$$#+@@@@@@@@@@@@@@@@@@@@@@@@@#$$#+@@@@@@@@@@@@$%%",
"%$@@@@@@@@@@@@@#$+@@@@@@@@@@@@@@@@@@@@@@@@@@@##@@@@@@@@@@@@@@$%%",
"%$@+@@@@@@@@@@@+#@+@@+@@@@@@@@+@@@@@@@@@@@@@@##@@@+@@@+@@+@@+$%%",
"%$@+@@+++++++@+##+@@++@@@@@@@@+@@+@@++++@@+++##+@@++@@@@@@@@+$%%",
"%$@@+++@@+@@+@@##+@+++++@@@@@++@@@@+++@@@@+++##+@@+++@@@@@@@+$%%",
"%$@@@@@@@+@@+++##+++++++++++++++@@++@@++@@+++##++++#+++++++++$%%",
"%$++++++++@@+++##++++++@++++++++++++++++@@+++##++@+++++++++++$%%",
"%$++++@@+@@@+@@##+++@+++++++++++++++@@++@@+@+##++@@+@++++++++$%%",
"%$++++@@+@@++@@##+++++@+++++++++++++@@+@@@@++##++@@@@++++++++$%%",
"%$+++++@++++++@##++++++@++++++++++++@++++@@@@##++@@@+++++++++$%%",
"%$++++@@+++++++##++++@+++++++@@@+++@@@++++@@+##++@@@@++++++++$%%",
"%$+++++++#+++++##++++++++@@@++@+++++@++#+++@+##++@@+@++++++++$%%",
"%$++@@@++++++++##++++++++++@@++++++@@++++++@+##++@+++++++@++#$%%",
"%$#####$#######$$$####$$$####$$$#############$$$####$$####$$$%%%",
"                                                                "};
