/* XPM */
static char * p_left!_xpm[] = {
"64 64 177 2",
"  	c None",
". 	c #47704C",
"+ 	c #FFFFFF",
"@ 	c #FFFFFF",
"# 	c #FFFFFF",
"$ 	c #FFFFFF",
"% 	c #FFFFFF",
"& 	c #FFFFFF",
"* 	c #FFFFFF",
"= 	c #FFFEFE",
"- 	c #FFFFFF",
"; 	c #FFFFFF",
"> 	c #FFFFFF",
", 	c #FFFFFF",
"' 	c #FFFFFF",
") 	c #FFFFFF",
"! 	c #FFFFFF",
"~ 	c #FFFFFF",
"{ 	c #FFFFFF",
"] 	c #FEFEFE",
"^ 	c #FFFFFF",
"/ 	c #FFFEFE",
"( 	c #010000",
"_ 	c #FFFFFF",
": 	c #FFFFFF",
"< 	c #0A0A0A",
"[ 	c #050505",
"} 	c #FFFFFF",
"| 	c #BFBFBF",
"1 	c #F9F9F8",
"2 	c #FAFAFA",
"3 	c #FFFFFF",
"4 	c #0B0B0C",
"5 	c #BCB4B2",
"6 	c #1D1B1A",
"7 	c #F8D3BC",
"8 	c #050505",
"9 	c #876E64",
"0 	c #F9D4BE",
"a 	c #A08C86",
"b 	c #FCEADE",
"c 	c #F0E2DA",
"d 	c #594D49",
"e 	c #898989",
"f 	c #8A8584",
"g 	c #614A42",
"h 	c #A9A4A3",
"i 	c #B7B5B4",
"j 	c #BBB5B3",
"k 	c #958F8C",
"l 	c #A4928C",
"m 	c #705147",
"n 	c #F7D8C4",
"o 	c #B09C94",
"p 	c #735E57",
"q 	c #7A5F56",
"r 	c #727272",
"s 	c #6B524A",
"t 	c #F3DCCF",
"u 	c #9B857D",
"v 	c #D5C9C3",
"w 	c #7C5C4F",
"x 	c #B9ADA8",
"y 	c #E8D1C4",
"z 	c #474747",
"A 	c #747473",
"B 	c #CDCAC9",
"C 	c #363737",
"D 	c #8A8A8A",
"E 	c #C4BDB8",
"F 	c #393939",
"G 	c #1B1C1C",
"H 	c #80706C",
"I 	c #A18071",
"J 	c #A89082",
"K 	c #112B54",
"L 	c #7D635B",
"M 	c #6E5148",
"N 	c #7C645D",
"O 	c #B19D95",
"P 	c #B0A09A",
"Q 	c #7D7D7D",
"R 	c #7A6D68",
"S 	c #8E7B75",
"T 	c #535252",
"U 	c #451D1D",
"V 	c #171A1E",
"W 	c #302F2F",
"X 	c #464646",
"Y 	c #6F1716",
"Z 	c #2A2B2B",
"` 	c #2C333C",
" .	c #5F4E48",
"..	c #424241",
"+.	c #F8D9C6",
"@.	c #FBD6C0",
"#.	c #6C534A",
"$.	c #957F78",
"%.	c #A4948F",
"&.	c #86736D",
"*.	c #232323",
"=.	c #502D2D",
"-.	c #6A6D72",
";.	c #F8D3BC",
">.	c #4A4444",
",.	c #F8D0B8",
"'.	c #6D4C41",
").	c #795548",
"!.	c #020000",
"~.	c #D50000",
"{.	c #6F4D42",
"].	c #FBD3BB",
"^.	c #5B3E35",
"/.	c #604239",
"(.	c #6B4A3F",
"_.	c #765346",
":.	c #745145",
"<.	c #705045",
"[.	c #D80000",
"}.	c #840101",
"|.	c #FAD2BA",
"1.	c #F4CCB5",
"2.	c #785447",
"3.	c #9B0000",
"4.	c #CD0000",
"5.	c #997769",
"6.	c #060506",
"7.	c #67483D",
"8.	c #EBC5AE",
"9.	c #62443B",
"0.	c #0D47A1",
"a.	c #FCD6BE",
"b.	c #E3BEA8",
"c.	c #352E2C",
"d.	c #86665A",
"e.	c #998071",
"f.	c #DDB7A2",
"g.	c #D5B29E",
"h.	c #DB0000",
"i.	c #0A3880",
"j.	c #EB8071",
"k.	c #BB9B89",
"l.	c #2A2523",
"m.	c #5C4D45",
"n.	c #1E0101",
"o.	c #F7CFB7",
"p.	c #420101",
"q.	c #00060F",
"r.	c #B50000",
"s.	c #320000",
"t.	c #06224F",
"u.	c #B49684",
"v.	c #736156",
"w.	c #A80000",
"x.	c #0E3573",
"y.	c #FDFDFD",
"z.	c #181318",
"A.	c #F7CFB7",
"B.	c #423A35",
"C.	c #C2A390",
"D.	c #640000",
"E.	c #CCAB96",
"F.	c #FAECE3",
"G.	c #0E132D",
"H.	c #C7C1BD",
"I.	c #031B3E",
"J.	c #B5B5B5",
"K.	c #F4E4DB",
"L.	c #FADDCC",
"M.	c #CC6E61",
"N.	c #930203",
"O.	c #F1CAB2",
"P.	c #0B3F90",
"Q.	c #D58071",
"R.	c #4D1513",
"S.	c #D79483",
"T.	c #F19685",
"              (                                                                                                                 ",
"              8                                                                                                                 ",
"              <                                                                                                                 ",
"              <                                                                                                                 ",
"              <                                                                                                                 ",
"              8                                                                                                                 ",
"              (                                                                                                                 ",
"              (         f m g g g g g #.                                                                                        ",
"              (         k 9.^.^.^.^.^.M                                                                                         ",
"              (         N /./.9.9.7.7.q R                                                                                       ",
"              <     9 ^./.^./.(.'.:.)._.{.{.9./.L                                                                               ",
"              <     9 ^././.9.(.'.:.)._.{.'.9./.N                                                                               ",
"              <     9 ^.7.:.:.{.'.:.).).2._._.:.w m m m m q d.L                                                                 ",
"              <     9 ^.7.).2.{.'.:.).).).).).).:.'.'.'.'.(.(.M                                                                 ",
"              8     9 ^.7.<.<.'.'.<.<.:.).).).)._.:.:.:.:.:.:.q u u u u $.S a                                                   ",
"              (     q ^.9.'.'.'.'.'.'.{.).).).).).).).).).).)._.'.'.'.'.7.^.s                                                   ",
"              (     S q q <.{.'.'.'.'.{._._._._._._._._._.2.)._.<.{.{.{.(./.s f                                                 ",
"              (         a )._.{.'.'.'.'.{.{.{.{.{.{.{.{.{.:.).).).).).).:.(.'.'.s l                                             ",
"              8         O d.w {.(.(.(.(.(.(.(.(.'.'.'.'.'.:.2.2.2.2.).).:.'.(./.9.l                                             ",
"              <             k s /./././././././.7.'.'.'.'.{.{.{.{.{._.).2._.:.(.'.a                                             ",
"              <                .^.^.^.^.^.^.^.^./.(.(.'.'.'.'.'.'.'._.).).).2.{.<.a                                             ",
"              <               I 5.5.5.5.5.5.5.5.5.I 5.<.7.(.'.'.'.'._.).).).2.{.<.a                                             ",
"              <               7 o.o.o.,.,.,.,.,.,.,.b._.^.7.'.(.(.'._.).).).2.{.<.l                                             ",
"              (               0 ,.,.,.O.b.b.b.b.8.,.b.w (.:.).).).).2._.2.2._.{.<.o                                             ",
"              (               0 ,.,.|.C.c.l.l.l.d.A.1.f.f.f.f.f.f.g.d./.7.{.{.'.<.o                                             ",
"              (               0 ,.,.].u.6.!.!.!.m.,.|.|.|.|.|.|.|.1.d.^.9.'.'.'.<.o                                             ",
"              (               0 ,.,.|.g.v.v.v.v.v.9 e.8.,.,.,.,.,.O.d.^.9.'.'.'.<.o                                             ",
"              8               7 ,.,.,.,.|.|.,.|.e.!.6 g.|.,.,.,.,.O.d.^.9.'.'.'.<.l                                             ",
"              <               7 ,.,.,.O.g.g.1.L.J l.B.f.|.,.,.,.,.1.5.)._.(.(.'.<.a                                             ",
"              <               7 ,.,.|.C.B.B.H.y.K.b.b.1.,.,.,.,.,.o.8.8.u././.(.<.a                                             ",
"              <               7 ,.,.|.C.l.l.H.y.F.|.|.,.,.,.,.,.,.,.,.|.k././.(.<.a                                             ",
"              8               7 ,.,.].k.z.z.J.y.F.,.,.,.,.,.,.,.,.,.,.|.k./././.7.l                                             ",
"              (               0 ,.,.].u.6.6.J.y.K.,.,.,.,.,.,.,.,.,.,.,.k.^.^.^./.%.                                            ",
"              (               0 ,.,.|.E.m.m.H.F.L.,.,.,.,.,.,.,.,.,.,.|.E.9 9 9 5.O                                             ",
"              (               0 ,.,.,.A.1.1.,.|.,.,.,.,.,.,.,.,.,.,.,.,.A.1.1.1.1.                                              ",
"              (               7 7 A.,.1.8.8.8.8.O.,.,.,.,.,.,.,.,.,.,.,.,.,.,.7 7                                               ",
"              <                   ;.|.C.B.c.c.c.9 A.,.,.,.,.,.,.,.,.,.,.,.,.0                                                   ",
"              <                   @.].u.!.!.!.!.m.,.].].].].|.].].].].].].].a.                                                  ",
"              <                     @.o s m.m.m.d.j.j.j.j.j.j.Q.e.e.e.e.e.e.J                                                   ",
"              <                         7 o.,.].j.~.~.~.~.~.[.3.!.!.!.!.!.!.6                                                   ",
"              8                         7 7 b.f.M.~.~.~.~.~.[.w.n.n.!.!.4 6 W                                                   ",
"              (                              .6 Y ~.~.~.~.~.~.4.r.w.s.!.V                                                       ",
"              (                             C !.p.~.~.~.~.~.~.~.[.4.p.!.G                                                       ",
"              (                         ..>.Y }.3.~.4.D.D.w.[.~.~.4.p.!.G                                                       ",
"              8                       f 4 !.3.h.~.[.r.n.!.}.[.~.~.4.s.!.G                                                       ",
"              <                       k 4 !.3.[.~.[.r.n.!.}.[.~.~.4.D.s.U                                                       ",
"              <                       k 4 !.3.[.~.[.r.n.!.}.[.~.~.~.4.4.}.4 l.                                                  ",
"              <                       k 4 !.3.[.~.4.r.n.6.}.[.~.4.4.~.[.}.!.6                                                   ",
"              <                       k 4 !.3.h.3.p.R.I u.S.T.M.p.p.w.[.}.!.6                                                   ",
"              (                       f 4 !.3.h.}.!.6 g.a.].a.k.6.!.3.h.}.!.6                                                   ",
"              (                       f 4 !.3.h.}.!.6 g.|.,.].k.6.!.3.h.}.!.6                                                   ",
"              (                       f 4 !.3.h.}.!.6 g.|.,.].k.6.!.3.h.}.!.6                                                   ",
"              (                       f z.4 N.4.}.6.6 E.8.8.8.J 4 6.N.4.}.4 *.                                                  ",
"              8                             =.s.G.i.x.c.c.c.c.c.i.x.z.s.U                                                       ",
"              <                             C !.I.0.P.q.!.!.!.G.0.0.G.!.`                                                       ",
"              <                             C !.I.0.P.K t.t.t.t.t.K ` ..                                                        ",
"              <                             C !.I.0.0.0.0.0.0.x.!.6.                                                            ",
"              8                             g Z K i.i.i.i.i.i.x.Z W                                                             ",
"              (                                 -.4 q.q.q.q.q.V                                                                 ",
"              (                                 A 4 6.6.6.!.!.(                                                                 ",
"              (                                   R A A A                                                                       ",
"              (                                                                                                                 ",
"              8                                                                                                                 ",
"              <                                                                                                                 "};
