/* XPM */
static char * p_right!_xpm[] = {
"64 64 201 2",
"  	c None",
". 	c #47704C",
"+ 	c #EFEFEF",
"@ 	c #EFEFEF",
"# 	c #EFEEEE",
"$ 	c #F0F0F0",
"% 	c #F1F1F1",
"& 	c #F0F0F0",
"* 	c #F0F0F0",
"= 	c #F0F0F0",
"- 	c #F0F0F0",
"; 	c #F0F0F0",
"> 	c #F0F0F0",
", 	c #F0F0F0",
"' 	c #EFEFEF",
") 	c #F1F1F1",
"! 	c #EFEFEF",
"~ 	c #F2F2F2",
"{ 	c #EFEEEE",
"] 	c #F1F1F1",
"^ 	c #F1F1F1",
"/ 	c #EFEFEF",
"( 	c #F0F0F0",
"_ 	c #EFEFEF",
": 	c #F0EFEE",
"< 	c #EFEFEF",
"[ 	c #F0F0F0",
"} 	c #EBEBEA",
"| 	c #F0EEED",
"1 	c #F0F0F0",
"2 	c #EFEFEF",
"3 	c #D1CBC9",
"4 	c #F3F4F3",
"5 	c #EFF1F1",
"6 	c #C5B8B4",
"7 	c #FEFEFE",
"8 	c #9E918C",
"9 	c #FBFBFB",
"0 	c #676767",
"a 	c #886A60",
"b 	c #F5F6F7",
"c 	c #D0C6C1",
"d 	c #F8D4BD",
"e 	c #F5DBCC",
"f 	c #8B7269",
"g 	c #826C65",
"h 	c #DFD3CD",
"i 	c #A69C99",
"j 	c #E9E2DE",
"k 	c #3D3E42",
"l 	c #6E5950",
"m 	c #786259",
"n 	c #785A50",
"o 	c #7D5E54",
"p 	c #8B736B",
"q 	c #C4C0BE",
"r 	c #D1CFCF",
"s 	c #674642",
"t 	c #F4D5C2",
"u 	c #856558",
"v 	c #9B9693",
"w 	c #919191",
"x 	c #EBE6E3",
"y 	c #656565",
"z 	c #E0CFC6",
"A 	c #735A52",
"B 	c #E8E3E1",
"C 	c #B9B1AF",
"D 	c #B0ABA9",
"E 	c #8E8886",
"F 	c #AC9385",
"G 	c #737372",
"H 	c #303030",
"I 	c #4C4C4C",
"J 	c #C5C5C5",
"K 	c #947E76",
"L 	c #7A5C52",
"M 	c #F3D3C1",
"N 	c #6C524A",
"O 	c #836B63",
"P 	c #F8D7C3",
"Q 	c #F9D7C3",
"R 	c #90837E",
"S 	c #9A928E",
"T 	c #9C9592",
"U 	c #B5B0AF",
"V 	c #B8B8B8",
"W 	c #272828",
"X 	c #727373",
"Y 	c #E7C7B4",
"Z 	c #363738",
"` 	c #F6E2D6",
" .	c #78615A",
"..	c #B6A8A3",
"+.	c #C0B5B1",
"@.	c #8D736A",
"#.	c #7D5B4F",
"$.	c #89746E",
"%.	c #C9B0A1",
"&.	c #A2938D",
"*.	c #8A756F",
"=.	c #7B635B",
"-.	c #806962",
";.	c #2E2E2E",
">.	c #F5DCCD",
",.	c #333334",
"'.	c #9F9F9F",
").	c #454545",
"!.	c #727272",
"~.	c #747981",
"{.	c #4B4E52",
"].	c #2A2B2B",
"^.	c #3E2727",
"/.	c #7E7070",
"(.	c #FADAC6",
"_.	c #F8D0B8",
":.	c #6D4C41",
"<.	c #000000",
"[.	c #795548",
"}.	c #D50000",
"|.	c #FCD3BB",
"1.	c #725044",
"2.	c #6F4E42",
"3.	c #FAD2BA",
"4.	c #6B4A3F",
"5.	c #5E4137",
"6.	c #785447",
"7.	c #64463C",
"8.	c #755246",
"9.	c #5B3E35",
"0.	c #E9C2AC",
"a.	c #604339",
"b.	c #C4A38F",
"c.	c #D80000",
"d.	c #BA0000",
"e.	c #1B0000",
"f.	c #ECC6AF",
"g.	c #0C4398",
"h.	c #F5CEB6",
"i.	c #F1CAB2",
"j.	c #5D0101",
"k.	c #05080B",
"l.	c #7B5C50",
"m.	c #540303",
"n.	c #100E0C",
"o.	c #413630",
"p.	c #C40101",
"q.	c #867064",
"r.	c #051630",
"s.	c #65554B",
"t.	c #74554A",
"u.	c #F0A491",
"v.	c #E5BFA9",
"w.	c #4C3F38",
"x.	c #21201F",
"y.	c #534943",
"z.	c #650000",
"A.	c #D60D0C",
"B.	c #FAD7C2",
"C.	c #FEFDFC",
"D.	c #674E45",
"E.	c #E4BAA4",
"F.	c #0B3B87",
"G.	c #051124",
"H.	c #171513",
"I.	c #B89583",
"J.	c #66483E",
"K.	c #2C0000",
"L.	c #CE0000",
"M.	c #7D0000",
"N.	c #9D0101",
"O.	c #0D49A5",
"P.	c #BE9C8A",
"Q.	c #D6B49F",
"R.	c #DAB7A1",
"S.	c #CDA793",
"T.	c #900000",
"U.	c #7D685D",
"V.	c #9A7A6B",
"W.	c #062A61",
"X.	c #112449",
"Y.	c #6E6F6F",
"Z.	c #A2897C",
"`.	c #342C26",
" +	c #E0675B",
".+	c #400101",
"++	c #20365C",
"@+	c #2A1A2A",
"#+	c #06295E",
"$+	c #FEF7F3",
"%+	c #D9221E",
"&+	c #D3B19C",
"*+	c #743932",
"=+	c #8E1F1B",
"-+	c #A90000",
";+	c #083273",
">+	c #5E1212",
",+	c #D69281",
"'+	c #817C79",
")+	c #FCF1E9",
"!+	c #F3E5DD",
"                                                                                                                                ",
"                                                                                                                                ",
"                                                                                                                                ",
"                                                                                                                                ",
"                                                                                                                                ",
"                                                                                                                                ",
"                                                                            *.g g g g g K                                       ",
"                                                                            D.5.a.5.5.5.N                                       ",
"                                                                          8 D.7.a.a.5.5.s &.C                                   ",
"                                                                  m J.2.t.t.6.6.2.:.7.5.5.J.D.8                                 ",
"                                                                q l 9.7.:.2.[.6.2.:.J.5.5.9.5.8                                 ",
"                                                    L L f f f f f t.2.8.8.8.[.6.2.:.2.1.:.5.a.E                                 ",
"                                                  +.t.:.4.4.4.4.:.6.[.[.[.[.[.6.2.:.1.[.8.a.a.A                                 ",
"                                    q S         ..F t.2.1.1.1.1.1.6.[.[.[.6.8.8.2.:.1.8.1.a.a.A                                 ",
"                                    8 7.7.2.1.1.8.8.6.[.[.[.[.[.[.[.[.[.[.8.:.:.:.:.:.:.4.5.a.A                                 ",
"                                    8 5.a.4.:.:.:.1.[.[.6.6.6.6.6.6.6.6.6.8.:.:.:.:.:.:.:.D.N -.                                ",
"                                $.m l 4.4.8.8.8.8.6.[.6.1.2.2.2.2.2.2.2.2.2.:.:.:.:.1.8.#.D C                                   ",
"                                s 9.7.:.2.6.[.[.[.[.[.6.2.:.:.:.:.:.:.:.:.:.:.:.:.:.1.[.o                                       ",
"                                n 7.4.1.8.6.[.8.1.1.1.1.2.:.:.:.4.J.7.7.7.7.7.7.7.7.o K R                                       ",
"                                n :.1.[.[.[.[.1.:.:.:.:.:.:.4.4.4.5.9.9.9.9.9.9.9.9. .                                          ",
"                                u 4.1.[.[.[.[.1.:.:.:.:.4.4.[.u u l.l.l.l.l.l.l.l.l.v                                           ",
"                                a 4.1.[.[.[.[.1.:.:.:.4.a.9.V.f.0.0.0.0.0.0.0.0.0.0.M                                           ",
"                                a 4.1.[.[.[.[.1.2.2.2.2.a.5.Z.3._.h.h.h.h.h._._._._.e                                           ",
"                                a 4.2.1.2.J.J.V.b.b.b.b.P.P.R.3.v.l y.y.y.q.i._._._.e                                           ",
"                                a 4.:.:.4.5.5.I.|.3.3.3.3.3.3.|.Q.H.<.<.<.o.f._._._.t                                           ",
"                                o 4.:.:.4.5.5.I.3._._._._._.R.P.Z.w.o.o.o.m f._._._.d                                           ",
"                                n :.:.:.4.5.5.I.3._._._._.3.q.<.x.&+i.i.i.i._._._._.d                                           ",
"                                n :.:.:.4.7.7.I.3.h.i.i._.|.q.<.x.R.|.h.i.h._._._._.d                                           ",
"                                o :.J.a.1.P.S.v.3.b.w.y.&+3.Q.F P.!+)+Z.o.U.i._._._.d                                           ",
"                                a 4.7.9.t.0.|._.3.F <.k.b.3.3.|.B.C.C.Y.<.o.f._._._.t                                           ",
"                                U.7.a.9.t.v._._.3.S.s.l R.3._._.B.$+C.Y.<.o.f._._._.e                                           ",
"                                m 9.9.9.8.v._._._._.h.h._._._._.B.$+C.Y.<.o.f._._._.e                                           ",
"                                q.1.8.8.u 0._._._._._._._._._._.B.$+$+'+H.D.f._._._.e                                           ",
"                                Y E.E.E.v.h._._._._._._._._._._._.B.B.v.&+E.h._._._.P                                           ",
"                                M _._._._._._._._._._._._._._._._._._.3.3.3._._._._.d                                           ",
"                                    P _._._._._._._._._._._._._.v.m s.s.s.V.i.3.>.                                              ",
"                                      |.3.3.3.3.3.3.3.3.3.3.3.|.Q.H.<.<.<.o.f.3.`                                               ",
"                                    %.b.b.b.b.b.b.S.u.u.u.u.u.u.,+w.`.`.`.l t t                                                 ",
"                                    G n.n.n.n.n.n.m.A.A.A.A.A.A.%+u.0.0.0.Y                                                     ",
"                                    0 k.<.<.<.<.<..+L.}.}.}.}.}.%+E._._.3.(.                                                    ",
"                                    D E G H.<.m.T.N.}.}.}.}.}.}.p.5.y.8 `                                                       ",
"                                          x.<.M.c.c.}.}.c.c.}.c.d.e.<.Z                                                         ",
"                                        q x.<.M.c.}.}.L.N.T.d.c.p.m..+s R S                                                     ",
"                                        J x.<.M.c.}.}.p.K.<.z.}.}.L.L.j.k.y.                                                    ",
"                                        C @+e.M.c.}.}.p.K.<.z.}.}.}.}.j.<.k                                                     ",
"                                    X ].^.N.-+p.}.}.}.p.K.<.z.}.}.}.}.j.<.k                                                     ",
"                                    0 <.e.d.c.c.}.}.}.p.K.<.z.c.}.}.}.j.<.k                                                     ",
"                                    0 <.e.d.}.N.z.=+ + +a U.*+z.M.p.}.j.<.;.                                                    ",
"                                    0 <.e.d.}.m.<.w.f.3._.|.q.<.e.d.}.j.<.;.                                                    ",
"                                    0 <.e.d.}.m.<.w.f._._.|.q.<.e.d.}.j.<.;.                                                    ",
"                                    0 <.e.d.}.m.<.w.f._._.|.q.<.e.d.}.j.<.H                                                     ",
"                                    0 k.e.d.}.m.<.w.f._._.3.q.<.e.d.}.j.<.k                                                     ",
"                                      G /.>+m.@+W.++s.s.s.s.k W.X.m.j.s X E                                                     ",
"                                        J x.<.#+O.;+<.<.<.<.X.O.F.k.k.W                                                         ",
"                                        J y.,.++F.W.G.G.G.G.#+O.F.k.k.W                                                         ",
"                                              {.<.r.g.g.g.g.g.O.F.k.<.Z                                                         ",
"                                              I n.r.g.g.g.g.g.g.F.G.H.).                                                        ",
"                                                v ~.r.r.r.r.r.r.X.8 v                                                           ",
"                                                  v n.<.<.<.<.<.x.q                                                             ",
"                                                  D I I y y y y !.                                                              ",
"                                                                                                                                ",
"                                                                                                                                ",
"                                                                                                                                ",
"                                                                                                                                "};
