/* XPM */
static char * p_up!_xpm[] = {
"64 64 202 2",
"  	c None",
". 	c #47704C",
"+ 	c #FFFFFF",
"@ 	c #FFFFFF",
"# 	c #FFFFFF",
"$ 	c #FFFFFF",
"% 	c #FFFFFF",
"& 	c #FFFFFF",
"* 	c #FFFFFF",
"= 	c #FDFDFD",
"- 	c #FFFFFF",
"; 	c #FFFFFF",
"> 	c #FFFFFF",
", 	c #FFFFFF",
"' 	c #FDFDFD",
") 	c #FFFFFF",
"! 	c #FFFDFC",
"~ 	c #FFFFFF",
"{ 	c #FFFFFF",
"] 	c #FFFFFF",
"^ 	c #FFFFFF",
"/ 	c #FFFFFF",
"( 	c #FFFFFF",
"_ 	c #F1EFEF",
": 	c #FFFFFF",
"< 	c #FFFFFF",
"[ 	c #C7BCB7",
"} 	c #FFFFFF",
"| 	c #8F8D8C",
"1 	c #141414",
"2 	c #C5BCB9",
"3 	c #EAE6E4",
"4 	c #8A8887",
"5 	c #131415",
"6 	c #81635A",
"7 	c #86675B",
"8 	c #907B75",
"9 	c #6F5952",
"0 	c #0C0C0B",
"a 	c #191919",
"b 	c #8F8F8F",
"c 	c #4F4F4F",
"d 	c #775A50",
"e 	c #6A544C",
"f 	c #F3DCCE",
"g 	c #202020",
"h 	c #F8D3BD",
"i 	c #A2A3A3",
"j 	c #77706F",
"k 	c #292727",
"l 	c #2A2A2D",
"m 	c #71544B",
"n 	c #5D3F36",
"o 	c #7B5E53",
"p 	c #6F554C",
"q 	c #94827C",
"r 	c #674C44",
"s 	c #F9D4BD",
"t 	c #82726C",
"u 	c #575757",
"v 	c #6D5047",
"w 	c #8F746A",
"x 	c #907B75",
"y 	c #8A766E",
"z 	c #F7CFB7",
"A 	c #968985",
"B 	c #6F544A",
"C 	c #9D9D9D",
"D 	c #7F6B62",
"E 	c #878787",
"F 	c #F8D2BA",
"G 	c #221F1F",
"H 	c #3E3E3E",
"I 	c #555353",
"J 	c #847E7C",
"K 	c #121212",
"L 	c #757575",
"M 	c #4C4C4C",
"N 	c #ECCAB6",
"O 	c #826961",
"P 	c #E9C6B2",
"Q 	c #644840",
"R 	c #97837C",
"S 	c #65544E",
"T 	c #99918F",
"U 	c #6A5D59",
"V 	c #7B6F6B",
"W 	c #726662",
"X 	c #ECD7CC",
"Y 	c #7F7F7F",
"Z 	c #4C3C38",
"` 	c #524343",
" .	c #0F1928",
"..	c #AAA09D",
"+.	c #808182",
"@.	c #1B1B1B",
"#.	c #FAFAFA",
"$.	c #2D2D2D",
"%.	c #5B5B5B",
"&.	c #222222",
"*.	c #B2A6A2",
"=.	c #968078",
"-.	c #60443B",
";.	c #B2A5A2",
">.	c #B2A6A2",
",.	c #484F5A",
"'.	c #7C5F55",
").	c #ACACAB",
"!.	c #F8D1B9",
"~.	c #FDEEE5",
"{.	c #82858A",
"].	c #7B7F86",
"^.	c #F8D2BC",
"/.	c #840B0B",
"(.	c #5C1616",
"_.	c #3F1313",
":.	c #868888",
"<.	c #F8D0B8",
"[.	c #6D4C41",
"}.	c #D50000",
"|.	c #000001",
"1.	c #795548",
"2.	c #D80000",
"3.	c #6E4D42",
"4.	c #775447",
"5.	c #714F43",
"6.	c #FBD2BA",
"7.	c #5D4037",
"8.	c #6B4B40",
"9.	c #0D47A2",
"0.	c #64453B",
"a.	c #0F0D0C",
"b.	c #B20000",
"c.	c #6B4A3F",
"d.	c #745145",
"e.	c #990000",
"f.	c #68483E",
"g.	c #070000",
"h.	c #170000",
"i.	c #DB0000",
"j.	c #987566",
"k.	c #F2CBB3",
"l.	c #F9D1B9",
"m.	c #010C1D",
"n.	c #614339",
"o.	c #082D67",
"p.	c #604238",
"q.	c #BE9F8D",
"r.	c #C80000",
"s.	c #765246",
"t.	c #745246",
"u.	c #0D49A6",
"v.	c #DAB49F",
"w.	c #5C3E36",
"x.	c #082F6C",
"y.	c #340102",
"z.	c #836C60",
"A.	c #0B3F8F",
"B.	c #151110",
"C.	c #0C4296",
"D.	c #C2A28F",
"E.	c #082859",
"F.	c #6D0304",
"G.	c #0A367A",
"H.	c #5E0101",
"I.	c #A30000",
"J.	c #433932",
"K.	c #7B0000",
"L.	c #210000",
"M.	c #726054",
"N.	c #856255",
"O.	c #825D50",
"P.	c #BF0000",
"Q.	c #02050C",
"R.	c #ECC5AE",
"S.	c #130000",
"T.	c #FED5BC",
"U.	c #6E5D53",
"V.	c #674C44",
"W.	c #2D1F1C",
"X.	c #AA0101",
"Y.	c #D62420",
"Z.	c #E1BBA5",
"`.	c #E4544A",
" +	c #EEC7B0",
".+	c #05204A",
"++	c #860000",
"@+	c #E26A5D",
"#+	c #121B36",
"$+	c #927B6D",
"%+	c #F3BAA5",
"&+	c #BF9986",
"*+	c #890000",
"=+	c #0F2E69",
"-+	c #480000",
";+	c #192435",
">+	c #0D469E",
",+	c #C8564C",
"'+	c #572A25",
")+	c #B69785",
"!+	c #65564C",
"~+	c #9B564C",
"                                                                                                                                ",
"                                                                                                                                ",
"                                                                                                                                ",
"                                                                                                                                ",
"                                                                                                                                ",
"                                                              =.8 d d d d 8 8 8 8 O r r r d 8 y                                 ",
"                                                              B 8.[.[.[.[.[.p.w.w.w.7.7.7.7.w.e                                 ",
"                                                  >.;.*.      v [.[.[.[.[.8.0.p.n.0.0.0.0.n.p.p                                 ",
"                                            n n f.V.V.V.f.n Q [.[.[.[.[.[.[.[.8.5.4.4.4.4.5.8.c.n Q                             ",
"                                          r 7.7.7.7.7.7.7.7.p.8.[.[.[.[.[.[.[.[.5.1.1.1.1.5.[.8.f.t.                            ",
"                                  w w D D v w.n.3.5.5.5.[.f.f.[.[.5.s.t.t.t.t.t.d.5.5.4.1.5.[.B                                 ",
"                                '.[.f.7.w.w.7.0.4.1.1.1.d.[.[.[.[.d.1.1.1.1.1.1.d.[.3.4.1.5.[.o                                 ",
"                              j O 5.5.f.f.f.f.8.d.d.d.d.5.[.[.5.5.s.1.4.t.d.d.d.5.[.3.d.d.8.f.e                                 ",
"                            p 0.3.1.1.1.1.1.1.s.3.[.[.[.[.[.3.4.1.1.1.4.3.[.[.[.[.[.[.[.[.0.7.e                                 ",
"                            p p.c.s.t.s.s.s.s.d.3.3.3.3.3.3.5.4.1.4.4.t.[.[.[.[.8.8.8.[.[.v -.S                                 ",
"                            7 t.c.n.n.n.n.n.n.f.s.4.4.4.4.4.4.1.1.d.3.3.[.[.[.[.f.p.n.8.3.y                                     ",
"                            7 1.8.7.7.7.7.7.7.0.4.1.1.1.1.1.1.1.1.5.[.[.[.[.[.[.0.7.p.8.3.                                      ",
"                            7 5.f.7.7.0.f.0.0.f.5.d.4.1.1.1.1.1.1.5.[.[.[.[.[.[.[.8.8.[.3.                                      ",
"                            o [.0.7.p.8.[.[.[.[.[.[.s.1.1.1.1.1.1.5.[.[.[.[.[.[.5.1.4.3.3.                                      ",
"                            o c.0.p.n.8.[.[.[.[.[.[.t.4.4.4.4.4.4.5.[.[.3.3.3.3.d.1.4.8.[.                                      ",
"                            p 7.0.8.8.[.[.[.[.[.[.[.3.3.3.3.3.3.3.[.[.3.4.4.4.4.1.1.t.n.n.                                      ",
"                            p 7.0.[.[.[.[.[.[.[.[.[.[.[.[.[.[.[.[.[.[.5.4.1.1.1.1.1.t.p.p.                                      ",
"                            o [.[.[.[.[.[.[.[.[.[.[.[.[.[.[.[.[.[.[.[.3.5.5.c.f.3.1.4.3.5.                                      ",
"                            7 1.d.[.[.[.[.8.c.c.c.c.c.c.c.c.c.c.c.c.c.c.c.c.p.w.f.1.1.1.1.                                      ",
"                            7 1.5.f.f.5.5.N.j.j.j.j.j.j.j.j.j.j.j.j.j.j.j.j.3.w.c.1.4.5.5.                                      ",
"                            7 4.c.w.n.d.1.&+z k.k.k.k.k.k.k.k.k.k.k.k.k.k.R.N.w.f.4.d.p.p.                                      ",
"                            w O.1.8.5.O.N.D.6.<.<.<.<.<.<.<.<.<.<.<.<.<.l.k.z.8.4.N.O.3.3.                                      ",
"                            N v.v.v.v.v.v.R.<.<.<.<.<.<.<.<.<.<.<.<.<.<.<.z Z.v.v.v.v.v.v.                                      ",
"                            h l.6.6.6.l.l.l.<.<.<.<.<.<.<.<.<.<.<.<.<.<.<.<.l.6.6.l.l.6.6.                                      ",
"                            h <.<.<.<.<.<.<.<.<.<.<.<.<.<.<.<.<.<.<.<.<.<.<.<.<.<.<.<.<.<.                                      ",
"                            h <.<.<.<.<.<.<.<.<.<.<.<.<.<.<.<.<.<.<.<.<.<.<.<.<.<.<.<.<.l.                                      ",
"                            N F !.<.<.<.<.<.<.<.<.<.<.<.<.<.<.<.<.<.<.<.<.<.<.<.<.<.z F F                                       ",
"                                ^.<.<.<.<.<.<.<.<.<.<.<.<.<.<.<.<.<.<.<.<.<.<.<.<.<.h                                           ",
"                                  <.<.<.<.<.<.<.<.<.<.<.<.<.<.<.<.<.<.<.<.<.<.<.<.z h                                           ",
"                                y M.M.U.M.D.6.<.<.<.<.<.<.<.<.<.<.<.<.<.<.k.$+U.M.U.D                                           ",
"                                u |.|.|.|.$+T.6.6.6.6.6.6.6.6.6.6.6.6.6.6.R.J.|.|.|.g                                           ",
"                                ` y.y.y.y.O.D.q.q.q.q.q.q.q.q.q.q.q.q.q.q.)+'+y.y.y._.j                                         ",
"                            l B.F.r.r.r.r.H.a.a.a.a.a.a.a.a.a.a.a.a.a.a.a.B.e.r.r.r.X.B.5                                       ",
"                            G g.F.2.}.}.}.H.g.g.g.g.g.g.g.g.g.g.g.g.g.g.g.S.I.2.}.2.b.L.g.k                                     ",
"                        l l /.e.b.}.}.}.}.b.e.e.e.e.e.e.e.e.e.e.e.e.e.e.e.e.r.}.}.}.r.I.e.(.l $.                                ",
"                        a.g.I.i.}.}.}.2.2.2.2.2.2.2.2.2.2.2.2.2.2.2.2.2.2.2.2.2.2.}.}.2.2.H.|.K                                 ",
"                      S U.4.,+`.Y.}.r.++K.b.2.}.}.}.}.}.}.}.}.}.}.}.}.}.}.}.e.K.I.}.2.`.`.~+!+B k                               ",
"                  c |.J.R.<.z l.@+2.b.h.|.K.2.}.}.}.}.}.}.}.}.}.}.}.}.}.}.r.y.|.H.}.Y.%+<.z l.D.B.B.                            ",
"                  c |.J.R.l.<.6.@+P.I.L.S.++2.}.}.}.}.}.}.}.}.}.}.}.}.}.}.r.-+S.H.P.Y.%+l.<.6.D.a.a.                            ",
"                  c |.J.R.l.<.6.z.L.y.I.b.r.}.}.}.}.}.}.}.}.}.}.}.}.}.}.}.}.P.b.F.L.W.Z.l.<.6.D.a.a.                            ",
"                  c |.J. +6.6.T.z.|.L.P.i.2.}.}.}.}.}.}.}.}.}.}.}.}.}.}.}.}.2.i.K.|.W.Z.T.6.T.D.a.a.                            ",
"                  j @.e z.z.z.z.J.|.S.H.F.X.2.}.}.}.}.}.}.}.}.}.}.}.}.}.}.}.*+F.y.|.B.M.z.z.z.z.H @.                            ",
"                      j a.|.|.|.|.|.|.|.|.K.i.2.2.2.2.2.2.2.2.2.2.2.2.2.2.r.y.|.|.|.|.|.|.|.|.K                                 ",
"                        G 1 1 1 5 |.|.m.m.F.b.b.b.b.b.b.b.b.b.b.b.b.b.b.b.X.y.m.Q.|.Q.1 1 1 1 $.                                ",
"                                c |.m.G.A.#+h.h.h.h.h.h.h.h.h.h.h.h.h.h.h.h.=+A..+|.g                                           ",
"                                u |.m.A.9..+|.|.|.|.|.|.|.|.|.|.|.|.|.|.|.Q.G.u.E.|.g                                           ",
"                                u |.m.A.9.G.o.o.o.o.o.o.o.o.o.o.o.o.o.o.o.x.A.9.E.|.g                                           ",
"                                u |.m.A.9.9.9.9.u.u.u.u.u.u.u.u.u.u.u.u.9.9.9.9.E.|.g                                           ",
"                                H |.m.A.9.9.9.C.x.x.x.x.x.x.x.x.x.x.x.G.>+9.9.9.E.|.1                                           ",
"                                k |.m.A.9.9.9.G.Q.|.|.|.|.|.|.|.|.|.|.m.C.9.9.9.E.|.1                                           ",
"                                k 0  .A.C.C.C.G.5 0 0 0 B.5 5 5 5 0 0 #+A.C.C.C.E.B.K                                           ",
"                                    {.;+m.m.m.l           b b b b     ]. .m.m.m.,.b                                             ",
"                                      W.|.|.|.G                       b B.|.|.|.c                                               ",
"                                      H a a a k                         ` a a a j                                               ",
"                                                                                                                                ",
"                                                                                                                                ",
"                                                                                                                                ",
"                                                                                                                                ",
"                                                                                                                                "};
