/* XPM */
static char * wall_xpm[] = {
"64 64 19 1",
" 	c None",
".	c #47704C",
"+	c #334035",
"@	c #29342A",
"#	c #313E33",
"$	c #283129",
"%	c #2F322E",
"&	c #2D382E",
"*	c #232D24",
"=	c #86A28A",
"-	c #8EAB92",
";	c #1F2621",
">	c #374439",
",	c #7D9981",
"'	c #515F52",
")	c #728B76",
"!	c #586A5B",
"~	c #687E6D",
"{	c #455045",
"                                                                ",
"%%%%%%%%%%%%%%%%%%%%%%%%%%%%%%%%%%%%%%%%%%%%%%%%%%%%%%%%%%%%%%%%",
"%%%%%%%%%%%%%%%%%%%%%%%%%%%%%%%%%%%%%%%%%%%%%%%%%%%%%%%%%%%%%%%%",
"%%{'''''''''''''{{'''!'''''''''{{'''!'''''''''{{'''''''''!'''>%%",
"%&!,,,=-===-===,!!,,==-=-==-==)!!,,===-===--=)!!,,==-===-=-=)'%%",
"%&!==------=---,!!,-------=---,!~=-------=---,!~=-------=---,'%%",
"%&!,======,),--=!!=====-=,)=--=!!,======,)=--=!~,======,)=--='%%",
"%%!,=,,=-===,===!!,=,,====,,=-,!!,=,,====,,=-,!!,=,,=-==,,==,'%%",
"%%!,,,=----=,==)!!,====---=,==)!!,,,=----=,==)!!,,,=----=,==)'%%",
"%&')=--------=))!!)=--------=)~!!)=--------,)~'!,=--------=)~'%%",
"%%'),---------,)!!)=---------,)!!)=---------,)!!)=---------,)'%%",
"%&')=---==,==,-=!!)=---=====,-=!!)=---======-=!!)=---===,==-='%%",
"%%')=========,,,!!)=========,,,!!)===,,====,,,!!)=========,,,'%%",
"%&'),,=,==---,),!!~,,=,==---,))!!),,=,==---,))!!),,=,=----,))'&%",
"%&'),,,,),,,=,))!!),,,,),,,=,))!!),,,,),,,=,))!!),,,),,,,=,))'&%",
"%&'~~~~~~)~))))~''~~~~~~)~)))~~''~~~~~~)~)))~~'!~~~~~~)~)))~~{&%",
"%&{'''''''''''''{{'''''''''''''{{'''''''''''''{{'''''''''''''{%%",
"%%$@@@@@@@@@@@@@@$@$@@@@@@@@$@$$$@$$@@@@@@@@@@$$$$$$@@@@@@@@@$%%",
"%%@@@$**$$$$$@@@@@@@$*$@@@@@$@@@@$$@*$@@@@@@$@@@@$$*$$@$$$@@@@%%",
"%&+>>>&#>+>>>>>>>>>>+&#>>>>>>>>>>>>+@#>>>>>>>>>>>>>@#>>>>>>>>+%%",
"%%#+++&&+##+++++++++#@&##+++++++++++@&++##+++++++++$&####+++++%%",
"%%++++&&+##+++###+#++@&##++++++++++#@&++#+++##+++++@&##++++++#%%",
"%&++>+&&+##+++##+++++@&##++++++++++#@&++#+++#+++++#@&##++++++#%%",
"%%#++#@&+######+++++#@&+++++++##+++#@&++#####++++##@&+#+++++++%%",
"%%&&&&$@&&&&&&&&&&&&&$@&&&&&&&&&&&&&$@&&&&&&&&&&&&&$@&&&&&&&&&%%",
"%$*******$*$$*$*$******$****$***$******$****$*******$*********%%",
"%%#+++++++++++++@&+##++++++++++@&++++++++++>+>@&+++++#+++++++%%%",
"%%&++++++++++++#@&+++++++++++++@&+++++++++#+++@&++++++++>++++$%%",
"%%&+++++++###+++$&##+++++++++++$&#####++++++++@&##++++##+#+++$%%",
"%%&++++++##+++++$&##+++++++>+++$&+++++++++++++@&+#++++##+++++$%%",
"%%&++++++#++++++@&##+++++++++>+$&##++#++++++++@&++++++++++++#$%%",
"%%&#############@@#############$&#############@&############&$%%",
"%$$$@@@@@@@@$@@$*$@@$$$@@$$$@@$**@$$$$$$@@$$@$**$@@@@@@@@@@$$*%%",
"%%@@@@@&&&@$$@@&&&@@@@@&&@$$@@&@&&&@@@@@@*$@@@@@@@@@@@&@$@@@@@%%",
"%&>>>>>>>>>&#>>>>>>>>>>>>>&#>>>>>>>>>>>>>@#>>>>>>>>>>>>>&+>>>+%%",
"%%#+++####+@&+##+++##+#+++$&++#+++++>++++@&+##+++##+##+#$&####%%",
"%%++#####++@&++++++##+++++@&###++++#+++++@&+##+++##++#+#$&##+#%%",
"%%#++++++++@&+##++++++++++@&##+++++++++++@&++++++++>+++#@&##+#%%",
"%%##++++++#@&++#+++++###+#@&++###+++++#+#@&##+###+++++##@&####%%",
"%%&&&&&&&&&$@&&&&&&&&&&&&&*@&&&&&&&&&&&&&$@&&&&&&&&&&&&&$@&&&&%%",
"%%************************************$**********************$%%",
"%%##++@&++#++++++++++@&+###++++++++#@&+++++#+++++##@&+++#++++#%%",
"%%#+++@&>++++++++++++@&+++++>>++++++@&>++++++++++++@&++++++++#%%",
"%%##++@&+##++++++++++@&###++++####++@&+++>++####++#@&###+++++#%%",
"%%#+++@&+##++++++++>+@&###++++++++++@&+++++++++++++@&##++++++#%%",
"%%#+++@&+###+++++++++@&##+++++++++++@&+++++++++++##@&##+++++++%%",
"%%####@&#############@&#############$&#############@&########&%%",
"%%$@@@*$@@@@@@@@@@@@@**@@@@$$$$$$$$$*$@@@$$$$$$$$@$**$$$$$$$$$%%",
"%%@@@&@@@@@@@@@@$@@@@&&@&@@@@@@$@@@@@@@@@@$$$$$@@@@&&@@@@@&&@$%%",
"%%#>>>>>>>>>>+>>&#>>>>>>>>>>+>>@#>>>>>++#&&&&@$#>>>+>>>>++>>+$%%",
"%%&&&&&&&&&#&###$&+####++++####$@#&&&&&@@$@@@$;$##+#######++#$%%",
"%$$$@@@@@@@@@@@@**&&&&&&&&&&@&&;*$$$@@@$$$@@@$;*@@&###&&&&&&&*%%",
"%$$$$@@$$$$@@$$$;*$$$$$$$$@$$$$;*$$$$@@@@@@@$$;*$$$@@@$@@@@@$;%%",
"%$*$$$$$$$$$$$$@;*$$$$$$$$$$$$$;*$$$$$$$$$$$$$;*$$$$$$$$$$$@$;%%",
"%$**************;;*************;;*************;;*************;%%",
"%$;;;;;;;;;;;;;;;;;;;;;;;;;;;;;;;;;;;;;;;;;;;;;;;;;;;;;;;;;;;;%%",
"%%$$$@@@@@@;*@@@$@@%$$$$$$;*$@@@@$@@@@@@$;$@%$@$@$%@@$@@;$@@@@%%",
"%%@@@@@@@@@**@@@@@@@@@@@@@;*@@@@@@@&@@@@@**@@@@@@@@@@@@@**@@@@%%",
"%%@@@$$@@@$;*$$$$@$$@@@@@$;*$$$$@@@@@@$@@**$@@@@$$$@@@@$;*$@@%%%",
"%%@@@$$@@@$;*$@@@@$$$@@@$$;*$$$$@@@@@@@@@;*$@@@@$$$@@@@$;*@@@%%%",
"%%@@@@$$@$$;*$$$$$@@@@@@$$;*$$$$$$@@@@@@@;*$@@$$$@@@@@$$;*$@$%%%",
"%%$$$$$$$$*;;$$$$$$$$$$$$*;*$$$$$$$$$$$$$;*$$$$$$$$$$$$$;*$$$$%%",
"%$*;;;;;;;;;;;;;;;;;;;;;;;;;**;;***;;;;;;;;;;;;*;;;;;;;;;;;;;*%%",
"                                                                "};
